# xmcd
#
# Track frame offsets:
#	150
#	19160
#	36783
#	54732
#	73105
#	88791
#	104236
#	117158
#	135633
#	152471
#	165662
#	180015
#	196032
#	210149
#	225824
#
# Disc length: 3328
#
# Revision: 3
# Processed by: cddbd v1.5.1PL0 Copyright (c) Steve Scherf et al.
# Submitted via: VisiTrax 2.9.5.180 - For more info visit www.synapsa.com
# Normalized: r2:DSETVAR1
#
DISCID=b60cfe0f
DTITLE=Various Artist - CDX 321 June 2003
DYEAR=2003
DGENRE=Country
TTITLE0=Jessica Andrews - Good time
TTITLE1=Alan Jackson and Jimmy Buffet - It's five o'clock somewhere
TTITLE2=Kentucky Headhunters - Last night I met Carl Perkins
TTITLE3=Kentucky Headhunters - Lonely nights
TTITLE4=Patty Loveless - Lovin' all night
TTITLE5=Darryl Worley - Tennessee river run
TTITLE6=Craig Carter and Charlie Daniels - The flag song
TTITLE7=Martina McBride - This one's for the girls
TTITLE8=Rebecca Lynn Howard - What a shame
TTITLE9=Tim Murphy - Bert and Bobby's auto body shop
TTITLE10=Michael E. Tubbs - I could never love another
TTITLE11=Kelsey DiMarco - Some summer
TTITLE12=4 Sisters and A cousin - The bath
TTITLE13=Hal Bynum - Two women
TTITLE14=Roy D. Mercer - Load a bull
EXTD=
EXTT0=
EXTT1=
EXTT2=
EXTT3=
EXTT4=
EXTT5=
EXTT6=
EXTT7=
EXTT8=
EXTT9=
EXTT10=
EXTT11=
EXTT12=
EXTT13=
EXTT14=
PLAYORDER=
